<svg id="Layer_1" data-name="Layer 1" xmlns="http://www.w3.org/2000/svg" viewBox="0 0 768.15 149.84"><defs><style>.cls-1{fill:#272425;}.cls-2{fill:#e6e7e8;}.cls-3{fill:#4a00aa;}</style></defs><path class="cls-1" d="M0,79.78V33.24A12.56,12.56,0,0,0-12.56,20.68,12.55,12.55,0,0,0-25,31.78l-.1-.07V79.94a33.72,33.72,0,0,1-33.72,33.72A33.72,33.72,0,0,1-92.57,79.94V31.71l-.09.07a12.56,12.56,0,0,0-12.47-11.1h0a12.56,12.56,0,0,0-12.56,12.56V79.43c0,.17,0,.34,0,.51a58.85,58.85,0,0,0,58.85,58.85A58.6,58.6,0,0,0-25,128.09,12.56,12.56,0,0,0-12.56,139.2,12.56,12.56,0,0,0,0,126.64V79.78Z"/><path class="cls-2" d="M255.43,79.94a58.83,58.83,0,0,0-30.37-51.51,3.79,3.79,0,0,0-5.43,2.13C217.4,37.28,215.57,43,214.14,48a3.8,3.8,0,0,0,1.55,4.19,33.68,33.68,0,0,1,14.62,27.79,33.35,33.35,0,0,1-3,14,33.73,33.73,0,0,1-30.69,19.74c-1.09,0-2.16,0-3.23-.15a3.8,3.8,0,0,0-3.87,2.22c-2.07,4.69-4.36,10.26-7,16.85a3.8,3.8,0,0,0,2.81,5.13,58.93,58.93,0,0,0,45.12-9.64A12.55,12.55,0,0,0,243.71,139a12.81,12.81,0,0,0,11.72-12.9V80.52c0-.09,0-.17,0-.26S255.43,80.05,255.43,79.94Zm-92.56,0a33.7,33.7,0,0,1,33.72-33.72,32.46,32.46,0,0,1,3.84.22,3.73,3.73,0,0,0,3.83-2.23c2.06-4.69,4.36-10.24,7-16.81a3.81,3.81,0,0,0-2.78-5.12,58.91,58.91,0,0,0-70.63,54.39,58.81,58.81,0,0,0,30.82,55.07,3.79,3.79,0,0,0,5.41-2.13c2.21-6.68,4-12.41,5.48-17.34a3.83,3.83,0,0,0-1.6-4.23A33.67,33.67,0,0,1,162.87,79.94Z"/><path class="cls-2" d="M117.7,79.94A58.84,58.84,0,0,0,25,31.79,12.56,12.56,0,0,0,0,33.24v93.4a12.56,12.56,0,0,0,25,1.46l.1.07V79.94a33.72,33.72,0,1,1,67.44,0v48.23l.09-.07a12.56,12.56,0,0,0,25-1.46V80.45C117.69,80.28,117.7,80.11,117.7,79.94Z"/><path class="cls-2" d="M630.43,40.11a58.83,58.83,0,0,0-77.13-8.33h0A12.55,12.55,0,0,0,540.05,20.7a12.82,12.82,0,0,0-11.79,12.91v92.66a12.82,12.82,0,0,0,11.79,12.91,12.55,12.55,0,0,0,13.24-11.08h0l.09.07V80.72c0-18.89,15.19-34.7,34.08-34.5a33.66,33.66,0,0,1,24.8,11.27,12.49,12.49,0,0,0,18.54-.12A12.86,12.86,0,0,0,630.43,40.11Z"/><path class="cls-2" d="M768.15,79.78V33.24a12.56,12.56,0,0,0-25-1.46l-.09-.07V79.94a33.72,33.72,0,0,1-67.44,0V31.71l-.1.07A12.55,12.55,0,0,0,663,20.68h0a12.56,12.56,0,0,0-12.56,12.56v46.7a58.83,58.83,0,0,0,92.66,48.15,12.56,12.56,0,0,0,25-1.45V80s0-.07,0-.1S768.15,79.83,768.15,79.78Z"/><path class="cls-2" d="M381.17,12.56a12.56,12.56,0,1,0-25.12,0V31.73a58.84,58.84,0,1,0,25.12,48.21c0-.17,0-.34,0-.52s0-.17,0-.26Zm-58.85,101.1a33.72,33.72,0,1,1,33.73-33.72A33.72,33.72,0,0,1,322.32,113.66Z"/><path class="cls-2" d="M453,21.09a58.85,58.85,0,1,0,35,106.14,12.21,12.21,0,0,0,1.33-18.43h0a12.27,12.27,0,0,0-15.79-1.25,33.72,33.72,0,0,1-50.65-15h76.35a12.51,12.51,0,0,0,12.58-12.33v-.33A58.84,58.84,0,0,0,453,21.09ZM422.92,67.38a33.71,33.71,0,0,1,62.58,0Z"/><path class="cls-3" d="M220.59,87.81a.72.72,0,0,1-.48,1.34c-22.43-4.64-25.72,1.36-48.66,60.69,20.56-60.19,21.89-66.91,1.73-77.77a.72.72,0,0,1,.49-1.34c22.42,4.64,25.72-1.36,48.66-60.69C201.77,70.23,200.44,77,220.59,87.81Z"/></svg>