<?xml version="1.0" encoding="UTF-8"?><svg width="250" height="72" id="b" xmlns="http://www.w3.org/2000/svg" viewBox="0 0 1399.99 400.89"><defs><style>.d,.e{stroke-width:0px;}.e{fill:none;}</style></defs><g id="c"><rect class="e" width="1399.99" height="400.88"/><rect class="d" x="628.59" y="254.47" width="4.98" height="33.58"/><rect class="d" x="723.47" y="254.47" width="4.98" height="33.58"/><path class="d" d="m771.71,259.45h-9.95v-4.98h9.95v4.98Zm-9.95,4.98v4.98h4.98v18.65h4.98v-23.63h-9.96Z"/><polygon class="d" points="521.21 264.43 521.21 254.47 516.23 254.47 516.23 288.05 521.21 288.05 521.21 269.4 534.99 269.4 534.99 288.05 539.97 288.05 539.97 264.43 521.21 264.43"/><path class="d" d="m571.99,264.43v23.63h23.3v-23.63h-23.3Zm18.32,18.65h-13.35v-13.68h13.35v13.68Z"/><path class="d" d="m875.9,278.25l7.79-7.6v-6.23h-23.3v23.63h23.3v-4.98h-18.32v-4.82h10.53Zm1.96-8.85l-4,3.88h-8.49v-3.88h12.49Z"/><polygon class="d" points="829.28 264.42 809.99 283.08 809.99 264.43 805.01 264.43 805.01 288.05 812.12 288.05 829.28 271.28 829.28 264.42"/><path class="d" d="m666.87,264.43v23.63h23.3v-23.63h-23.3Zm18.32,18.65h-13.35v-13.68h13.35v13.68Z"/><path class="d" d="m632.28,112.14l-29.22-29.29v-33.01h29.22v62.3Zm122.78-25.48l17.1-33.66L744.05,0h-140.99l29.22,29.22h93.6l29.18,57.44h0Zm23.88-20.89l-67.89,133.59h33c.23,0,52.96-99.51,52.87-99.68l-17.99-33.91h.01Zm-81.15,133.59l14.85-29.22h-31.87v-87.22h-36.66v29.22h7.44v87.22h46.24Z"/><polyline class="d" points="843.46 400.88 827.3 400.88 827.3 312.86 837.3 312.86 843.46 312.86 843.46 388.23"/><polygon class="d" points="566.74 338.61 566.74 321.9 576.04 312.86 646.83 312.86 646.83 325.51 585.35 325.51 582.91 325.51 582.91 338.61 566.74 338.61"/><polygon class="d" points="566.74 375.13 566.74 391.84 576.04 400.88 646.83 400.88 646.83 388.23 585.35 388.23 582.91 388.23 582.91 375.13 566.74 375.13"/><rect class="d" x="566.74" y="350.55" width="69.46" height="12.64"/><rect class="d" x="739.87" y="388.23" width="68.36" height="12.64"/><polygon class="d" points="861.7 400.88 861.7 388.23 925.62 388.23 925.62 378.4 861.7 342.7 861.7 321.9 870.99 312.86 941.78 312.86 941.78 325.51 877.86 325.51 877.86 335.34 941.78 371.04 941.78 391.84 932.48 400.88 861.7 400.88"/><polygon class="d" points="663.69 400.88 663.69 312.86 673.68 312.86 679.85 312.86 679.85 388.23 688.91 388.23 767.07 312.86 767.07 331.66 695.97 400.88 663.69 400.88"/><path class="d" d="m458.21,400.88v-88.01h96.24v25.75l-63.96,62.27h-32.28,0Zm16.16-12.64h9.06l54.86-52.89v-9.83h-63.92v62.72Z"/></g></svg>